<?xml version="1.0" encoding="utf-8"?>
<!-- Generator: Adobe Illustrator 23.0.1, SVG Export Plug-In . SVG Version: 6.00 Build 0)  -->
<svg version="1.1" id="book" xmlns="http://www.w3.org/2000/svg" xmlns:xlink="http://www.w3.org/1999/xlink" x="0px" y="0px"
	 viewBox="0 0 445 639" style="enable-background:new 0 0 445 639;" xml:space="preserve">
<style type="text/css">
	.st0{fill:#44444F;}
	.st1{fill-rule:evenodd;clip-rule:evenodd;fill:#65E496;}
	.st2{fill:#3D3D47;}
</style>
<path class="st0" d="M445,5v629c0,2.8-2.2,5-5,5H5c-2.8,0-5-2.2-5-5V5c0-2.8,2.2-5,5-5h435C442.8,0,445,2.2,445,5z"/>
<path class="st1" d="M445,467.1V554l-25.5,25.5c-12,12-31.5,12-43.5,0s-12-31.4,0.1-43.5L445,467.1z"/>
<path class="st1" d="M445,340.5v87L338.7,533.7c-12,12-31.5,12-43.5,0c-11.9-12-11.9-31.5,0.1-43.5L445,340.5z"/>
<rect class="st2" width="62.7" height="639"/>
</svg>
